<svg id="Layer_3" enable-background="new 0 0 64 64" height="512" viewBox="0 0 64 64" width="512" xmlns="http://www.w3.org/2000/svg"><circle cx="32" cy="27" fill="#f5b953" r="15"/><path d="m57 38c-.359 0-.707.041-1.045.113-.445-4.554-4.284-8.113-8.955-8.113s-8.51 3.559-8.955 8.113c-.338-.072-.686-.113-1.045-.113-2.761 0-5 2.239-5 5s2.239 5 5 5c1.717 0 3.231-.867 4.131-2.186 1.576 1.359 3.624 2.186 5.869 2.186s4.293-.827 5.869-2.186c.9 1.319 2.414 2.186 4.131 2.186 2.761 0 5-2.239 5-5s-2.239-5-5-5z" fill="#a1cdfb"/><path d="m27 38c-.359 0-.707.041-1.045.113-.445-4.554-4.284-8.113-8.955-8.113s-8.51 3.559-8.955 8.113c-.338-.072-.686-.113-1.045-.113-2.761 0-5 2.239-5 5s2.239 5 5 5c1.717 0 3.231-.867 4.131-2.186 1.576 1.359 3.624 2.186 5.869 2.186s4.293-.827 5.869-2.186c.9 1.319 2.414 2.186 4.131 2.186 2.761 0 5-2.239 5-5s-2.239-5-5-5z" fill="#a1cdfb"/><path d="m42 42c-.359 0-.707.041-1.045.113-.445-4.554-4.284-8.113-8.955-8.113s-8.51 3.559-8.955 8.113c-.338-.072-.686-.113-1.045-.113-2.761 0-5 2.239-5 5s2.239 5 5 5c1.717 0 3.231-.867 4.131-2.186 1.576 1.359 3.624 2.186 5.869 2.186s4.293-.827 5.869-2.186c.9 1.319 2.414 2.186 4.131 2.186 2.761 0 5-2.239 5-5s-2.239-5-5-5z" fill="#c7e2fc"/><path d="m31 1h2v8h-2z" fill="#e39854"/><path d="m6 26h8v2h-8z" fill="#e39854"/><path d="m14 5.757h2v8.485h-2z" fill="#e39854" transform="matrix(.707 -.707 .707 .707 -2.678 13.536)"/><path d="m50 26h8v2h-8z" fill="#e39854"/><path d="m44.757 9h8.485v2h-8.485z" fill="#e39854" transform="matrix(.707 -.707 .707 .707 7.281 37.577)"/><g fill="#a1cdfb"><path d="m33.5 54.199h2v8.602h-2z" transform="matrix(.814 -.581 .581 .814 -27.576 30.949)"/><path d="m44.5 54.199h2v8.602h-2z" transform="matrix(.814 -.581 .581 .814 -25.527 37.343)"/><path d="m54.5 50.199h2v8.602h-2z" transform="matrix(.814 -.581 .581 .814 -21.34 42.41)"/><path d="m10.5 50.199h2v8.602h-2z" transform="matrix(.814 -.581 .581 .814 -29.535 16.836)"/><path d="m22.5 54.199h2v8.602h-2z" transform="matrix(.814 -.581 .581 .814 -29.625 24.556)"/></g></svg>